<svg width="50" height="50" viewBox="0 0 50 50" fill="none" xmlns="http://www.w3.org/2000/svg">
<g clip-path="url(#clip0)">
<path d="M2.01396 12.6817L24.5865 23.5469C24.8483 23.6729 25.1535 23.6729 25.4153 23.5469L47.9878 12.6815C48.7094 12.3345 48.7094 11.3071 47.9878 10.96L25.415 0.094988C25.1533 -0.0310116 24.8482 -0.0310116 24.5863 0.094988L2.01396 10.9601C1.29239 11.3072 1.29239 12.3345 2.01396 12.6817Z" fill="#DBC7B5"/>
<path d="M2.01385 25.8605L24.5864 36.7258C24.8482 36.8518 25.1534 36.8518 25.4152 36.7258L47.9877 25.8606C48.7093 25.5136 48.7093 24.4862 47.9877 24.1388L43.2254 21.8468L28.0996 29.127C27.1388 29.5893 26.0671 29.8336 25.0008 29.8336C23.9345 29.8336 22.8631 29.5893 21.9005 29.1263L6.77641 21.8462L2.01371 24.1386C1.29228 24.4862 1.29228 25.5135 2.01385 25.8605Z" fill="#DBC7B5"/>
<path d="M47.987 37.3183L43.2247 35.0259L28.0989 42.3066C27.138 42.7689 26.0663 43.0131 25.0001 43.0131C23.9338 43.0131 22.8623 42.7689 21.8998 42.3059L6.77568 35.0259L2.01298 37.3184C1.29141 37.6659 1.29141 38.6929 2.01298 39.0403L24.5855 49.9056C24.8473 50.0316 25.1525 50.0316 25.4143 49.9056L47.9868 39.0403C48.7086 38.6927 48.7086 37.6656 47.987 37.3183Z" fill="#DBC7B5"/>
</g>
<defs>
<clipPath id="clip0">
<rect width="50" height="50" fill="white"/>
</clipPath>
</defs>
</svg>
