<svg width="512" height="512" viewBox="0 0 512 512" fill="none" xmlns="http://www.w3.org/2000/svg">
<path d="M507.505 208.193C506.157 201.118 499.972 196 492.77 196H256C247.716 196 241 202.716 241 211V301C241 309.284 247.716 316 256 316H376.93C367.812 334.344 354.729 350.22 339.025 362.655C337.703 363.344 336.462 364.242 335.352 365.351C335.237 365.466 335.139 365.591 335.029 365.709C312.404 382.325 284.836 392 256 392C180.744 392 120 330.693 120 256C120 181.277 180.777 120 256 120C284.563 120 312.552 129.693 336.944 148.032C342.913 152.521 351.281 151.933 356.564 146.649L420.573 82.64C426.794 76.419 426.346 66.191 419.603 60.538C373.035 21.5 314.934 0 256 0C187.99 0 123.806 26.731 75.269 75.268C26.73 123.806 0 187.991 0 256C0 324.009 26.73 388.194 75.269 436.732C123.806 485.269 187.99 512 256 512C324.01 512 388.194 485.269 436.731 436.732C485.27 388.194 512 324.009 512 256C512 239.937 510.487 223.853 507.505 208.193V208.193ZM256 30C302.582 30 348.649 45.316 387.372 73.414L344.226 116.561C317.198 99.144 286.946 90 256 90C211.993 90 170.399 107.359 138.879 138.879C127.03 150.729 117.183 164.003 109.506 178.293L65.591 134.378C105.796 71.653 176.125 30 256 30V30ZM50.591 161.804L97.052 208.265C92.408 223.58 90 239.622 90 256C90 272.378 92.408 288.42 97.052 303.735L50.591 350.196C37.382 321.505 30 289.6 30 256C30 222.4 37.382 190.495 50.591 161.804V161.804ZM65.591 377.622L109.506 333.707C117.183 347.997 127.03 361.271 138.879 373.121C170.399 404.641 211.993 422 256 422C287.656 422 318.025 412.961 344.551 395.763L388.068 439.281C350.893 466.143 305.266 482 256 482C176.125 482 105.796 440.347 65.591 377.622V377.622ZM411.272 420.059L368.321 377.107C389.11 357.5 404.868 332.613 413.411 305.508C414.847 300.951 414.026 295.982 411.201 292.129C408.375 288.276 403.883 285.999 399.104 285.999H271V225.999H480.008C481.331 235.912 482 245.958 482 255.999C482 320.539 454.802 378.84 411.272 420.059V420.059Z" fill="#DBC7B5"/>
</svg>
