<svg width="50" height="40" viewBox="0 0 50 40" fill="none" xmlns="http://www.w3.org/2000/svg">
<path d="M38.75 18.1436C35.75 18.1436 32.9166 19.27 30.8959 21.2211L16.25 33.7729C14.9166 35.0602 13.1459 35.7642 11.25 35.7642C7.35414 35.7642 4.1875 32.7269 4.1875 28.9654C4.1875 25.2039 7.35414 22.1666 11.25 22.1666C13.1459 22.1666 14.9166 22.8706 16.3334 24.2384L18.6875 26.2499L21.8334 23.5545L19.2084 21.3218C17.0834 19.27 14.25 18.1436 11.25 18.1436C5.04166 18.1436 0 23.0114 0 28.9654C0 34.9194 5.04166 39.7873 11.25 39.7873C14.25 39.7873 17.0834 38.6608 19.1041 36.7097L33.75 24.158C35.0834 22.8706 36.8541 22.1666 38.75 22.1666C42.6459 22.1666 45.8125 25.2039 45.8125 28.9654C45.8125 32.7269 42.6459 35.7642 38.75 35.7642C36.875 35.7642 35.0834 35.0602 33.6666 33.6925L31.2916 31.6608L28.1459 34.3562L30.7916 36.6091C32.9166 38.6407 35.7291 39.7671 38.75 39.7671C44.9584 39.7671 50 34.9194 50 28.9453C50 22.9711 44.9584 18.1436 38.75 18.1436Z" fill="#DBC7B5"/>
<path fill-rule="evenodd" clip-rule="evenodd" d="M4.28577 32.1839L25.1191 0L45.9524 32.1839H4.28577ZM38.4314 28.1609L25.1189 7.58331L11.8064 28.1609H38.4314Z" fill="#DBC7B5"/>
</svg>
