<svg width="50" height="50" viewBox="0 0 50 50" fill="none" xmlns="http://www.w3.org/2000/svg">
<g clip-path="url(#clip0)">
<path d="M25.0001 0C11.2149 0 0 11.2149 0 25.0001C0 38.7854 11.2149 50 25.0001 50C38.7854 50 50.0002 38.7851 50.0002 25.0001C50.0002 11.2151 38.7851 0 25.0001 0ZM25.0001 43.1195C15.0092 43.1195 6.88093 34.9913 6.88093 25.0001C6.88093 15.0089 15.0092 6.8807 25.0001 6.8807C34.9911 6.8807 43.1193 15.0089 43.1193 25.0001C43.1193 34.9913 34.9911 43.1195 25.0001 43.1195ZM34.0847 21.7485C34.0847 16.7019 30.5428 13.5667 24.8413 13.5667H16.3944V36.4335H21.2374V30.0625H24.8415C25.0539 30.0625 25.2784 30.0571 25.5094 30.0458L30.1697 36.4338H36.1714L30.4901 28.6494C32.8095 27.2015 34.0847 24.7559 34.0847 21.7485ZM24.8413 25.2198H21.2374V18.4097H24.8415C29.2422 18.4097 29.2422 20.9224 29.2422 21.7485C29.2422 22.6068 29.2422 25.2198 24.8413 25.2198Z" fill="#111111"/>
</g>
<defs>
<clipPath id="clip0">
<rect width="50" height="50" fill="white"/>
</clipPath>
</defs>
</svg>
