<svg width="50" height="50" viewBox="0 0 50 50" fill="none" xmlns="http://www.w3.org/2000/svg">
<path d="M41.5219 0.721875C41.2344 0.271875 40.7375 0 40.2031 0H24.5781C23.9719 0 23.4187 0.35 23.1625 0.903125L1.28748 47.7781C1.05936 48.2625 1.09686 48.8281 1.38436 49.2781C1.67186 49.7281 2.16873 50 2.70311 50H18.3281C18.9344 50 19.4875 49.65 19.7437 49.0969L41.6187 2.22188C41.8469 1.7375 41.8094 1.17188 41.5219 0.721875ZM17.3312 46.875H5.15623L25.5719 3.125H37.7469L17.3312 46.875Z" fill="#DBC7B5"/>
<path d="M48.6156 25.7219C48.3281 25.2719 47.8313 25 47.2969 25H28.5469C27.6813 25 26.9844 25.7 26.9844 26.5625C26.9844 27.425 27.6844 28.125 28.5469 28.125H44.8438L36.0844 46.875H18.3281C17.4656 46.875 16.7656 47.575 16.7656 48.4375C16.7656 49.3 17.4656 50 18.3281 50H37.0781C37.6844 50 38.2375 49.65 38.4938 49.0969L48.7125 27.2219C48.9406 26.7375 48.9031 26.1719 48.6156 25.7219Z" fill="#DBC7B5"/>
</svg>
