<svg width="50" height="50" viewBox="0 0 50 50" fill="none" xmlns="http://www.w3.org/2000/svg">
<g clip-path="url(#clip0)">
<path d="M20.5704 23.4999C21.608 22.978 22.3925 22.3967 22.93 21.7685C23.8863 20.6372 24.3582 19.1371 24.3582 17.2776C24.3582 15.468 23.8863 13.921 22.9425 12.624C21.3674 10.5114 18.7015 9.43003 14.9325 9.37378H0V39.8544H13.923C15.4919 39.8544 16.9451 39.72 18.289 39.445C19.6329 39.1668 20.7955 38.6574 21.7799 37.9136C22.655 37.2667 23.3863 36.4635 23.9676 35.5165C24.8864 34.0852 25.3458 32.4632 25.3458 30.6568C25.3458 28.9066 24.9427 27.4159 24.1426 26.1908C23.3332 24.9657 22.1456 24.0687 20.5704 23.4999ZM6.15988 14.668H12.8854C14.3637 14.668 15.5825 14.8274 16.5389 15.143C17.6452 15.6024 18.1984 16.5369 18.1984 17.962C18.1984 19.2402 17.7765 20.134 16.942 20.6372C16.1013 21.1404 15.0106 21.3935 13.673 21.3935H6.15988V14.668ZM16.7951 34.0289C16.0513 34.3883 15.0044 34.5665 13.6636 34.5665H6.15988V26.4377H13.7668C15.0919 26.4471 16.1232 26.6221 16.8608 26.9502C18.1734 27.544 18.8265 28.6316 18.8265 30.2224C18.8265 32.0975 18.1515 33.3601 16.7951 34.0289Z" fill="#DBC7B5"/>
<path d="M45.1944 10.7957H31.9526V14.5897H45.1944V10.7957Z" fill="#DBC7B5"/>
<path d="M49.7946 25.769C49.5196 24.0033 48.9133 22.45 47.9695 21.1093C46.935 19.5904 45.6224 18.4778 44.0254 17.7746C42.4347 17.0683 40.6439 16.7152 38.65 16.7183C35.3028 16.7183 32.5839 17.7652 30.4806 19.8435C28.3835 21.9281 27.3334 24.9252 27.3334 28.8318C27.3334 32.9977 28.4929 36.0074 30.8243 37.8544C33.1464 39.7045 35.8279 40.6265 38.8719 40.6265C42.5565 40.6265 45.4224 39.5295 47.4694 37.3418C48.7789 35.9605 49.5196 34.601 49.6821 33.2665H43.5816C43.2285 33.9259 42.8191 34.4416 42.3503 34.8166C41.5002 35.5042 40.3939 35.848 39.0375 35.848C37.7468 35.848 36.6529 35.5636 35.7404 34.9979C34.234 34.0916 33.4464 32.5039 33.3464 30.2444H49.9947C50.0197 28.2973 49.9571 26.8004 49.7946 25.769ZM33.4964 26.3534C33.7152 24.8877 34.2465 23.7251 35.0903 22.8657C35.9341 22.0093 37.128 21.5781 38.6562 21.5749C40.0657 21.5749 41.2439 21.9781 42.2034 22.7875C43.1503 23.6032 43.6848 24.7877 43.7941 26.3534H33.4964Z" fill="#DBC7B5"/>
</g>
<defs>
<clipPath id="clip0">
<rect width="50" height="50" fill="white"/>
</clipPath>
</defs>
</svg>
