<svg width="70" height="58" viewBox="0 0 70 58" fill="none" xmlns="http://www.w3.org/2000/svg">
<path d="M54.25 26.3083C50.05 26.3083 46.0833 27.9417 43.2542 30.7708L22.75 48.9708C20.8833 50.8375 18.4042 51.8583 15.75 51.8583C10.2958 51.8583 5.8625 47.4542 5.8625 42C5.8625 36.5458 10.2958 32.1417 15.75 32.1417C18.4042 32.1417 20.8833 33.1625 22.8667 35.1458L26.1625 38.0625L30.5667 34.1542L26.8917 30.9167C23.9167 27.9417 19.95 26.3083 15.75 26.3083C7.05833 26.3083 0 33.3667 0 42C0 50.6333 7.05833 57.6917 15.75 57.6917C19.95 57.6917 23.9167 56.0583 26.7458 53.2292L47.25 35.0292C49.1167 33.1625 51.5958 32.1417 54.25 32.1417C59.7042 32.1417 64.1375 36.5458 64.1375 42C64.1375 47.4542 59.7042 51.8583 54.25 51.8583C51.625 51.8583 49.1167 50.8375 47.1333 48.8542L43.8083 45.9083L39.4042 49.8167L43.1083 53.0833C46.0833 56.0292 50.0208 57.6625 54.25 57.6625C62.9417 57.6625 70 50.6333 70 41.9708C70 33.3083 62.9417 26.3083 54.25 26.3083V26.3083Z" fill="#DBC7B5"/>
<path fill-rule="evenodd" clip-rule="evenodd" d="M6 46.6667L35.1667 0L64.3333 46.6667H6ZM53.8039 40.8333L35.1664 10.9958L16.5289 40.8333H53.8039Z" fill="#DBC7B5"/>
</svg>
