<svg width="50" height="50" viewBox="0 0 50 50" fill="none" xmlns="http://www.w3.org/2000/svg">
<g clip-path="url(#clip0)">
<path d="M25 1.0415C11.1875 1.0415 0 12.0415 0 25.6082C0 36.4644 7.1625 45.6707 17.0937 48.9165C18.3437 49.1478 18.8021 48.3873 18.8021 47.7353C18.8021 47.1519 18.7812 45.6061 18.7708 43.5582C11.8167 45.0394 10.35 40.2623 10.35 40.2623C9.2125 37.4269 7.56875 36.6686 7.56875 36.6686C5.30417 35.1457 7.74375 35.1769 7.74375 35.1769C10.2542 35.3478 11.5729 37.7082 11.5729 37.7082C13.8021 41.4644 17.425 40.379 18.8542 39.7519C19.0792 38.1623 19.7229 37.0811 20.4375 36.4665C14.8854 35.8519 9.05 33.7394 9.05 24.3269C9.05 21.6457 10.0187 19.454 11.6229 17.7353C11.3417 17.1144 10.4979 14.6165 11.8417 11.2332C11.8417 11.2332 13.9354 10.5748 18.7167 13.7519C20.7167 13.2061 22.8417 12.9353 24.9667 12.9228C27.0917 12.9353 29.2167 13.2061 31.2167 13.7519C35.9667 10.5748 38.0604 11.2332 38.0604 11.2332C39.4042 14.6165 38.5604 17.1144 38.3104 17.7353C39.9042 19.454 40.8729 21.6457 40.8729 24.3269C40.8729 33.7644 35.0292 35.8415 29.4667 36.4457C30.3417 37.1832 31.1542 38.6894 31.1542 40.9915C31.1542 44.279 31.1229 46.9207 31.1229 47.7186C31.1229 48.3623 31.5604 49.1311 32.8417 48.8853C42.8437 45.6603 50 36.4478 50 25.6082C50 12.0415 38.8062 1.0415 25 1.0415V1.0415Z" fill="#DBC7B5"/>
</g>
<defs>
<clipPath id="clip0">
<rect width="50" height="50" fill="white"/>
</clipPath>
</defs>
</svg>
