<svg width="50" height="50" viewBox="0 0 50 50" fill="none" xmlns="http://www.w3.org/2000/svg">
<path d="M34.375 0H15.625C6.99688 0 0 6.99688 0 15.625V34.375C0 43.0031 6.99688 50 15.625 50H34.375C43.0031 50 50 43.0031 50 34.375V15.625C50 6.99688 43.0031 0 34.375 0ZM45.3125 34.375C45.3125 40.4062 40.4062 45.3125 34.375 45.3125H15.625C9.59375 45.3125 4.6875 40.4062 4.6875 34.375V15.625C4.6875 9.59375 9.59375 4.6875 15.625 4.6875H34.375C40.4062 4.6875 45.3125 9.59375 45.3125 15.625V34.375Z" fill="#DBC7B5"/>
<path d="M25 12.5C18.0969 12.5 12.5 18.0969 12.5 25C12.5 31.9031 18.0969 37.5 25 37.5C31.9031 37.5 37.5 31.9031 37.5 25C37.5 18.0969 31.9031 12.5 25 12.5ZM25 32.8125C20.6937 32.8125 17.1875 29.3063 17.1875 25C17.1875 20.6906 20.6937 17.1875 25 17.1875C29.3063 17.1875 32.8125 20.6906 32.8125 25C32.8125 29.3063 29.3063 32.8125 25 32.8125Z" fill="#DBC7B5"/>
<path d="M38.4375 13.2282C39.3574 13.2282 40.1031 12.4825 40.1031 11.5626C40.1031 10.6427 39.3574 9.89697 38.4375 9.89697C37.5176 9.89697 36.7719 10.6427 36.7719 11.5626C36.7719 12.4825 37.5176 13.2282 38.4375 13.2282Z" fill="#DBC7B5"/>
</svg>
