<svg width="50" height="50" viewBox="0 0 50 50" fill="none" xmlns="http://www.w3.org/2000/svg">
<g clip-path="url(#clip0)">
<path d="M49.9876 50.0001V49.998H50.0001V31.6605C50.0001 22.6897 48.0688 15.7793 37.5813 15.7793C32.5397 15.7793 29.1563 18.546 27.7751 21.1689H27.6292V16.6168H17.6855V49.998H28.0397V33.4689C28.0397 29.1168 28.8647 24.9085 34.2542 24.9085C39.5646 24.9085 39.6438 29.8751 39.6438 33.748V50.0001H49.9876Z" fill="#DBC7B5"/>
<path d="M0.825012 16.6187H11.1917V49.9999H0.825012V16.6187Z" fill="#DBC7B5"/>
<path d="M6.00417 0C2.68958 0 0 2.68958 0 6.00417C0 9.31875 2.68958 12.0646 6.00417 12.0646C9.31875 12.0646 12.0083 9.31875 12.0083 6.00417C12.0062 2.68958 9.31667 0 6.00417 0V0Z" fill="#DBC7B5"/>
</g>
<defs>
<clipPath id="clip0">
<rect width="50" height="50" fill="white"/>
</clipPath>
</defs>
</svg>
