<svg width="50" height="50" viewBox="0 0 50 50" fill="none" xmlns="http://www.w3.org/2000/svg">
<g clip-path="url(#clip0)">
<path d="M46.0104 9.86058L50 6.04391V5.2085H36.1792L26.3292 29.7252L15.1229 5.2085H0.63125V6.04391L5.29167 11.6543C5.74583 12.0689 5.98333 12.6752 5.92292 13.2856V35.3335C6.06667 36.1272 5.80833 36.9439 5.25 37.521L0 43.8835V44.7085H14.8854V43.8731L9.63542 37.521C9.06667 36.9418 8.79792 36.1397 8.9125 35.3335V16.2627L21.9792 44.7189H23.4979L34.7333 16.2627V38.9314C34.7333 39.5293 34.7333 39.6523 34.3417 40.0439L30.3 43.9543V44.7918H49.9083V43.9564L46.0125 40.1418C45.6708 39.8835 45.4937 39.4502 45.5667 39.0293V10.9731C45.4937 10.5502 45.6687 10.1168 46.0104 9.86058V9.86058Z" fill="#DBC7B5"/>
</g>
<defs>
<clipPath id="clip0">
<rect width="50" height="50" fill="white"/>
</clipPath>
</defs>
</svg>
