<svg width="50" height="50" viewBox="0 0 50 50" fill="none" xmlns="http://www.w3.org/2000/svg">
<path d="M25 0C11.1933 0 0 11.1928 0 25C0 38.8072 11.1933 50 25 50C38.8066 50 50 38.8072 50 25C50 11.1928 38.8066 0 25 0ZM27.8767 33.3038C25.5642 33.3038 23.3893 32.0537 22.6445 30.6343C22.6445 30.6343 21.4005 35.5678 21.1391 36.5197C20.2118 39.8854 17.4839 43.2522 17.2716 43.5279C17.1238 43.7197 16.7969 43.6598 16.7632 43.4051C16.7054 42.9765 16.0087 38.7304 16.8281 35.2675C17.2379 33.5284 19.5816 23.598 19.5816 23.598C19.5816 23.598 18.8992 22.2307 18.8992 20.2092C18.8992 17.0353 20.7386 14.666 23.0292 14.666C24.9765 14.666 25.9166 16.1284 25.9166 17.8813C25.9166 19.8394 24.6706 22.7673 24.0276 25.4803C23.49 27.7519 25.1657 29.6051 27.4061 29.6051C31.4639 29.6051 34.1949 24.3939 34.1949 18.2184C34.1949 13.5258 31.0358 10.0118 25.2854 10.0118C18.7908 10.0118 14.7407 14.8563 14.7407 20.2685C14.7407 22.1335 15.2921 23.4506 16.1545 24.468C16.5499 24.9361 16.6061 25.1243 16.4624 25.6614C16.3586 26.0558 16.1248 27.0041 16.0256 27.379C15.8829 27.9223 15.444 28.1156 14.9524 27.9156C11.9621 26.6946 10.5678 23.4179 10.5678 19.7345C10.5678 13.6512 15.6977 6.35652 25.8731 6.35652C34.0496 6.35652 39.4312 12.2726 39.4312 18.6246C39.4317 27.0276 34.7601 33.3038 27.8767 33.3038Z" fill="#DBC7B5"/>
</svg>
