<svg width="50" height="50" viewBox="0 0 50 50" fill="none" xmlns="http://www.w3.org/2000/svg">
<g clip-path="url(#clip0)">
<path d="M44.4271 19.3915C42.848 19.3915 41.4584 20.0561 40.4355 21.0915C36.6751 18.4498 31.6042 16.7498 25.9855 16.5686L28.9042 3.22275L38.198 5.33942C38.198 7.64775 40.0521 9.53317 42.3271 9.53317C44.6459 9.53317 46.5105 7.59775 46.5105 5.28734C46.5105 2.97692 44.6584 1.0415 42.3292 1.0415C40.7063 1.0415 39.3063 2.03525 38.6084 3.39359L28.3438 1.08525C27.8271 0.945671 27.3209 1.32067 27.1834 1.84567L23.9792 16.5582C18.4042 16.7936 13.3876 18.4915 9.61464 21.1353C8.59172 20.0561 7.14798 19.3915 5.56881 19.3915C-0.289524 19.3915 -2.20827 27.3686 3.15631 30.0957C2.96673 30.9394 2.88131 31.8394 2.88131 32.7373C2.88131 41.6978 12.8292 48.9582 25.0438 48.9582C37.3105 48.9582 47.2584 41.6978 47.2584 32.7373C47.2584 31.8394 47.1646 30.8978 46.9334 30.0519C52.1896 27.3144 50.2542 19.3957 44.4271 19.3915V19.3915ZM11.6688 30.6623C11.6688 28.3103 13.523 26.4165 15.8521 26.4165C18.1271 26.4165 19.9834 28.2978 19.9834 30.6623C19.9834 32.9728 18.1292 34.8561 15.8521 34.8561C13.5334 34.8665 11.6688 32.9728 11.6688 30.6623V30.6623ZM34.2501 40.6582C30.4146 44.5498 19.5917 44.5498 15.7542 40.6582C15.3313 40.2832 15.3313 39.6207 15.7542 39.1936C16.123 38.8186 16.7771 38.8186 17.1459 39.1936C20.0751 42.2415 29.7917 42.2936 32.848 39.1936C33.2167 38.8186 33.8709 38.8186 34.2396 39.1936C34.6709 39.6228 34.6709 40.2853 34.2501 40.6582V40.6582ZM34.1646 34.8644C31.8896 34.8644 30.0355 32.9832 30.0355 30.6748C30.0355 28.3228 31.8896 26.429 34.1646 26.429C36.4834 26.429 38.348 28.3103 38.348 30.6748C38.3376 32.9728 36.4834 34.8644 34.1646 34.8644Z" fill="#111111"/>
</g>
<defs>
<clipPath id="clip0">
<rect width="50" height="50" fill="white"/>
</clipPath>
</defs>
</svg>
