<svg width="50" height="50" viewBox="0 0 50 50" fill="none" xmlns="http://www.w3.org/2000/svg">
<path d="M25 0C11.195 0 0 11.195 0 25C0 38.805 11.195 50 25 50C38.805 50 50 38.805 50 25C50 11.195 38.805 0 25 0ZM39.9723 33.0719C39.7923 33.4915 38.9828 34.0878 36.1515 34.5249C35.9196 34.5604 35.8299 34.8621 35.6918 35.4942C35.6415 35.7243 35.5907 35.9505 35.5209 36.1881C35.4607 36.3941 35.3321 36.4906 35.1158 36.4906H35.0807C34.9304 36.4906 34.7176 36.4635 34.4471 36.4105C33.9676 36.3171 33.4301 36.2309 32.7461 36.2309C32.3467 36.2309 31.9336 36.2652 31.5182 36.3338C30.6686 36.4758 29.9473 36.9846 29.1836 37.5248C28.0739 38.3099 26.9283 39.1197 25.1427 39.1197C25.0648 39.1197 24.9889 39.1171 24.9123 39.1136C24.8634 39.1178 24.8127 39.1197 24.762 39.1197C22.9771 39.1197 21.8315 38.3102 20.7237 37.5263C19.9589 36.9862 19.2368 36.4758 18.3861 36.3338C17.971 36.2652 17.5579 36.2309 17.1593 36.2309C16.4394 36.2309 15.8726 36.3419 15.4579 36.4227C15.2065 36.4719 14.9891 36.5143 14.8239 36.5143C14.6515 36.5143 14.465 36.4769 14.3837 36.1996C14.3131 35.9589 14.2624 35.7265 14.2128 35.5007C14.0862 34.9216 13.9965 34.5654 13.7539 34.528C10.923 34.0908 10.1124 33.4942 9.93195 33.0711C9.90677 33.0109 9.89151 32.9498 9.88846 32.8903C9.8793 32.7274 9.99413 32.5836 10.1551 32.5577C14.5065 31.8413 16.4581 27.393 16.5394 27.2041C16.5413 27.1996 16.5436 27.1942 16.5462 27.1893C16.8125 26.6495 16.8644 26.1806 16.7019 25.7965C16.4032 25.0931 15.4289 24.7837 14.7842 24.5792C14.6267 24.5289 14.4772 24.482 14.3589 24.435C13.0722 23.9265 12.9654 23.4047 13.0161 23.1388C13.1023 22.6852 13.7081 22.369 14.1983 22.369C14.3322 22.369 14.4505 22.393 14.55 22.4396C15.1291 22.7104 15.6506 22.8481 16.1011 22.8481C16.7229 22.8481 16.9945 22.5868 17.0277 22.5525C17.0113 22.258 16.9918 21.9501 16.972 21.6324C16.8423 19.5755 16.6813 17.0185 17.3328 15.5594C19.2837 11.1855 23.4203 10.8452 24.6422 10.8452C24.6735 10.8452 25.1778 10.8398 25.1778 10.8398H25.2499C26.474 10.8398 30.6206 11.1801 32.5722 15.5567C33.2233 17.0166 33.0624 19.5755 32.9327 21.6312L32.9269 21.7209C32.909 22.007 32.8915 22.2851 32.877 22.5517C32.9082 22.5838 33.1581 22.8237 33.7215 22.8455H33.7219C34.1511 22.8291 34.6432 22.6921 35.1837 22.4396C35.3416 22.3652 35.5179 22.3495 35.6373 22.3495C35.8208 22.3495 36.0058 22.3854 36.1595 22.4491L36.1694 22.4533C36.6062 22.6082 36.8927 22.9141 36.8988 23.2346C36.9045 23.5359 36.6741 23.9891 35.5457 24.435C35.4286 24.4812 35.2791 24.5285 35.1204 24.5789C34.4749 24.7833 33.5014 25.0931 33.2027 25.7961C33.0399 26.1806 33.0917 26.6487 33.3584 27.1885C33.3607 27.1938 33.3633 27.1988 33.3656 27.2041C33.4465 27.393 35.3958 31.8398 39.7499 32.5573C39.9105 32.5836 40.0257 32.7274 40.0166 32.8896C40.0131 32.9506 39.9982 33.012 39.9723 33.0719V33.0719Z" fill="#111111"/>
</svg>
