<svg width="50" height="50" viewBox="0 0 50 50" fill="none" xmlns="http://www.w3.org/2000/svg">
<path d="M25 50C38.8 50 50 38.8 50 25C50 11.2 38.8 0 25 0C11.2 0 0 11.2 0 25C0 38.8 11.2 50 25 50ZM35.15 36.7833V36.7854C33.4687 36.7854 28.1583 30.8938 13.2333 33.9521C12.8396 34.0542 12.325 34.2146 12.0333 34.2146C10.1271 34.2146 9.7625 31.3625 11.8125 30.9271C20.0687 29.1042 28.5062 29.2646 35.7021 33.5688C37.4187 34.6646 36.6896 36.7833 35.15 36.7833V36.7833ZM37.8646 30.1729C37.6292 30.1104 37.6979 30.3167 36.6208 29.75C30.3187 26.0208 20.9271 24.5167 12.5687 26.7854C12.0854 26.9167 11.8229 27.0479 11.3687 27.0479C9.1375 27.0479 8.54583 23.6917 10.9771 23.0062C20.8021 20.2458 31.3417 21.8563 38.6792 26.2208C39.4958 26.7042 39.8188 27.3312 39.8188 28.2062C39.8083 29.2937 38.9625 30.1729 37.8646 30.1729V30.1729ZM9.475 14.5792C18.8979 11.8208 33.1583 12.6917 42.025 17.8667C44.2979 19.1771 43.4042 22.4917 40.9875 22.4917L40.9854 22.4896C40.4604 22.4896 40.1375 22.3583 39.6833 22.0958C32.5104 17.8125 19.675 16.7854 11.3708 19.1042C11.0062 19.2042 10.5521 19.3646 10.0687 19.3646C8.7375 19.3646 7.72083 18.325 7.72083 16.9854C7.72083 15.6167 8.56875 14.8417 9.475 14.5792V14.5792Z" fill="#111111"/>
</svg>
