<svg width="50" height="50" viewBox="0 0 50 50" fill="none" xmlns="http://www.w3.org/2000/svg">
<path d="M46.9061 12.5381C44.0526 12.5381 41.4198 11.5928 39.3055 9.99805C36.8807 8.16992 35.1385 5.48828 34.5233 2.39746C34.371 1.63379 34.2889 0.845703 34.2811 0.0380859H26.1298V22.3115L26.12 34.5117C26.12 37.7734 23.996 40.5391 21.0516 41.5117C20.1971 41.7939 19.2743 41.9277 18.3133 41.875C17.0868 41.8076 15.9374 41.4375 14.9383 40.8398C12.8124 39.5684 11.371 37.2617 11.3319 34.623C11.2704 30.499 14.6044 27.1367 18.7255 27.1367C19.5389 27.1367 20.3202 27.2695 21.0516 27.5107V21.4229V19.2344C20.2801 19.1201 19.495 19.0605 18.701 19.0605C14.1903 19.0605 9.97155 20.9355 6.95592 24.3135C4.67662 26.8662 3.30944 30.123 3.0985 33.5381C2.82213 38.0244 4.46373 42.2891 7.64733 45.4355C8.1151 45.8975 8.60631 46.3262 9.11998 46.7217C11.8495 48.8223 15.1864 49.9609 18.701 49.9609C19.495 49.9609 20.2801 49.9023 21.0516 49.7881C24.3348 49.3018 27.3641 47.7988 29.7548 45.4355C32.6923 42.5322 34.3153 38.6777 34.3329 34.5752L34.2909 16.3564C35.6923 17.4375 37.2245 18.332 38.869 19.0264C41.4266 20.1055 44.1385 20.6523 46.9296 20.6514V14.7324V12.5361C46.9315 12.5381 46.9081 12.5381 46.9061 12.5381V12.5381Z" fill="#DBC7B5"/>
</svg>
