<svg width="50" height="50" viewBox="0 0 50 50" fill="none" xmlns="http://www.w3.org/2000/svg">
<path d="M47.4472 13.284C46.907 11.2758 45.3237 9.69282 43.3159 9.15208C39.6478 8.14844 24.975 8.14844 24.975 8.14844C24.975 8.14844 10.3028 8.14844 6.63471 9.11403C4.66547 9.65419 3.04356 11.2761 2.5034 13.284C1.53809 16.9518 1.53809 24.5584 1.53809 24.5584C1.53809 24.5584 1.53809 32.2033 2.5034 35.8328C3.04413 37.8407 4.62685 39.4237 6.635 39.9644C10.3415 40.9684 24.9756 40.9684 24.9756 40.9684C24.9756 40.9684 39.6478 40.9684 43.3159 40.0028C45.324 39.4623 46.907 37.8793 47.4478 35.8715C48.4128 32.2033 48.4128 24.597 48.4128 24.597C48.4128 24.597 48.4514 16.9518 47.4472 13.284V13.284ZM20.3035 31.5857V17.5312L32.5047 24.5584L20.3035 31.5857Z" fill="#DBC7B5"/>
</svg>
